<svg width="209" height="44" viewBox="0 0 209 44" fill="none" xmlns="http://www.w3.org/2000/svg">
<path d="M19 14.288C18.0681 14.288 17.157 14.5644 16.3822 15.0821C15.6073 15.5999 15.0033 16.3358 14.6467 17.1968C14.29 18.0578 14.1967 19.0052 14.3785 19.9193C14.5604 20.8333 15.0091 21.6729 15.6681 22.3319C16.3271 22.9909 17.1667 23.4396 18.0807 23.6215C18.9948 23.8033 19.9422 23.71 20.8032 23.3533C21.6642 22.9967 22.4001 22.3927 22.9179 21.6178C23.4356 20.843 23.712 19.9319 23.712 19C23.712 18.3812 23.5901 17.7685 23.3533 17.1968C23.1165 16.6251 22.7694 16.1057 22.3319 15.6681C21.8943 15.2306 21.3749 14.8835 20.8032 14.6467C20.2315 14.4099 19.6188 14.288 19 14.288ZM37.867 9.633C37.857 8.16574 37.5868 6.71189 37.069 5.339C36.6876 4.33439 36.0976 3.42208 35.3377 2.66225C34.5779 1.90243 33.6656 1.31236 32.661 0.931C31.2881 0.413181 29.8343 0.142996 28.367 0.133C25.916 -1.27405e-07 25.194 0 19 0C12.806 0 12.084 -1.27405e-07 9.633 0.133C8.16574 0.142996 6.71189 0.413181 5.339 0.931C4.33439 1.31236 3.42208 1.90243 2.66225 2.66225C1.90243 3.42208 1.31236 4.33439 0.931 5.339C0.413181 6.71189 0.142996 8.16574 0.133 9.633C-1.27405e-07 12.084 0 12.806 0 19C0 25.194 -1.27405e-07 25.916 0.133 28.367C0.153451 29.8394 0.423271 31.2977 0.931 32.68C1.31067 33.68 1.90024 34.587 2.66 35.34C3.41657 36.1044 4.33084 36.6944 5.339 37.069C6.71189 37.5868 8.16574 37.857 9.633 37.867C12.084 38 12.806 38 19 38C25.194 38 25.916 38 28.367 37.867C29.8343 37.857 31.2881 37.5868 32.661 37.069C33.6692 36.6944 34.5834 36.1044 35.34 35.34C36.0998 34.587 36.6893 33.68 37.069 32.68C37.5863 31.3004 37.8564 29.8404 37.867 28.367C38 25.916 38 25.194 38 19C38 12.806 38 12.084 37.867 9.633ZM33.041 24.833C32.98 26.0055 32.7298 27.1604 32.3 28.253C31.9311 29.1644 31.3828 29.9923 30.6876 30.6876C29.9923 31.3828 29.1644 31.9311 28.253 32.3C27.1501 32.7058 25.9887 32.9304 24.814 32.965C23.313 32.965 22.914 32.965 19 32.965C15.086 32.965 14.687 32.965 13.186 32.965C12.0113 32.9304 10.8499 32.7058 9.747 32.3C8.8048 31.9499 7.95393 31.3913 7.258 30.666C6.56957 29.9844 6.0379 29.1609 5.7 28.253C5.29256 27.1512 5.07415 25.9885 5.054 24.814C5.054 23.313 5.054 22.914 5.054 19C5.054 15.086 5.054 14.687 5.054 13.186C5.07415 12.0115 5.29256 10.8488 5.7 9.747C6.05013 8.8048 6.60872 7.95393 7.334 7.258C8.01863 6.57328 8.8412 6.04218 9.747 5.7C10.8499 5.29417 12.0113 5.0696 13.186 5.035C14.687 5.035 15.086 5.035 19 5.035C22.914 5.035 23.313 5.035 24.814 5.035C25.9887 5.0696 27.1501 5.29417 28.253 5.7C29.1952 6.05013 30.0461 6.60872 30.742 7.334C31.4304 8.01562 31.9621 8.83905 32.3 9.747C32.7058 10.8499 32.9304 12.0113 32.965 13.186C32.965 14.687 32.965 15.086 32.965 19C32.965 22.914 33.098 23.313 33.041 24.814V24.833ZM30.001 10.697C29.7748 10.0833 29.4181 9.52592 28.9556 9.06341C28.4931 8.60089 27.9357 8.24422 27.322 8.018C26.4793 7.72589 25.5918 7.5844 24.7 7.6C23.218 7.6 22.8 7.6 19 7.6C15.2 7.6 14.782 7.6 13.3 7.6C12.4037 7.60876 11.516 7.776 10.678 8.094C10.0737 8.30995 9.52222 8.65205 9.06031 9.09758C8.5984 9.54311 8.23662 10.0819 7.999 10.678C7.72308 11.5242 7.58827 12.41 7.6 13.3C7.6 14.782 7.6 15.2 7.6 19C7.6 22.8 7.6 23.218 7.6 24.7C7.61884 25.5953 7.78576 26.4813 8.094 27.322C8.32022 27.9357 8.67689 28.4931 9.13941 28.9556C9.60192 29.4181 10.1593 29.7748 10.773 30.001C11.5837 30.2991 12.4367 30.4659 13.3 30.495C14.782 30.495 15.2 30.495 19 30.495C22.8 30.495 23.218 30.495 24.7 30.495C25.5963 30.4862 26.484 30.319 27.322 30.001C27.9357 29.7748 28.4931 29.4181 28.9556 28.9556C29.4181 28.4931 29.7748 27.9357 30.001 27.322C30.319 26.484 30.4862 25.5963 30.495 24.7C30.495 23.218 30.495 22.8 30.495 19C30.495 15.2 30.495 14.782 30.495 13.3C30.4955 12.4028 30.328 11.5135 30.001 10.678V10.697ZM19 26.258C18.0478 26.258 17.1049 26.0701 16.2254 25.7052C15.3458 25.3402 14.547 24.8053 13.8745 24.131C13.2021 23.4568 12.6692 22.6565 12.3066 21.7761C11.9439 20.8956 11.7585 19.9522 11.761 19C11.761 17.5637 12.1872 16.1597 12.9855 14.9657C13.7839 13.7717 14.9186 12.8415 16.2459 12.2927C17.5732 11.7439 19.0335 11.6013 20.442 11.8829C21.8504 12.1645 23.1436 12.8576 24.1579 13.8746C25.1722 14.8915 25.8619 16.1866 26.1398 17.5957C26.4178 19.0049 26.2713 20.4648 25.719 21.7907C25.1668 23.1166 24.2336 24.2488 23.0375 25.0441C21.8414 25.8393 20.4363 26.2618 19 26.258ZM26.6 13.167C26.18 13.1225 25.7913 12.9242 25.5088 12.6102C25.2263 12.2963 25.07 11.8889 25.07 11.4665C25.07 11.0441 25.2263 10.6367 25.5088 10.3228C25.7913 10.0088 26.18 9.81046 26.6 9.766C27.02 9.81046 27.4087 10.0088 27.6912 10.3228C27.9737 10.6367 28.13 11.0441 28.13 11.4665C28.13 11.8889 27.9737 12.2963 27.6912 12.6102C27.4087 12.9242 27.02 13.1225 26.6 13.167Z" fill="url(#paint0_linear_1_29)"/>
<path d="M75.9999 0C71.4884 0.000191816 67.1241 1.64633 63.6879 4.64387C60.2518 7.64141 57.9681 11.7947 57.2454 16.3607C56.5227 20.9267 57.4082 25.6073 59.7434 29.5652C62.0787 33.523 65.7113 36.4997 69.9912 37.9627C70.9412 38.1332 71.2975 37.5488 71.2975 37.0374C71.2975 36.5747 71.2737 35.0406 71.2737 33.4091C66.5 34.3101 65.265 32.216 64.885 31.1202C64.4633 30.0545 63.7949 29.1101 62.9375 28.3686C62.2725 28.0033 61.3225 27.1023 62.9137 27.078C63.5213 27.1456 64.1041 27.3624 64.6126 27.71C65.1211 28.0575 65.5404 28.5257 65.835 29.0747C66.0949 29.5533 66.4443 29.9747 66.8632 30.3146C67.2822 30.6546 67.7625 30.9064 68.2765 31.0557C68.7906 31.205 69.3283 31.2488 69.8589 31.1847C70.3895 31.1205 70.9026 30.9497 71.3687 30.6819C71.4509 29.6915 71.8814 28.7656 72.5799 28.0764C68.3525 27.5894 63.935 25.9091 63.935 18.4579C63.9083 16.5218 64.6051 14.6486 65.8825 13.2225C65.3016 11.5398 65.3696 9.69316 66.0725 8.06014C66.0725 8.06014 67.6637 7.54875 71.2975 10.0569C74.4064 9.18022 77.6885 9.18022 80.7974 10.0569C84.4311 7.52442 86.0223 8.06014 86.0223 8.06014C86.7253 9.69314 86.7933 11.5398 86.2123 13.2225C87.4936 14.6462 88.191 16.521 88.1598 18.4579C88.1598 25.9335 83.7186 27.5894 79.4911 28.0764C79.9446 28.5476 80.2938 29.1133 80.5151 29.7352C80.7364 30.357 80.8246 31.0204 80.7736 31.6803C80.7736 34.2859 80.7499 36.38 80.7499 37.0375C80.7499 37.5488 81.1061 38.1576 82.0561 37.9628C86.3285 36.4879 89.9507 33.5041 92.276 29.5443C94.6013 25.5845 95.4784 20.9062 94.7507 16.3446C94.023 11.7831 91.7378 7.63515 88.3032 4.64126C84.8686 1.64737 80.508 0.00240567 75.9999 0Z" fill="url(#paint1_linear_1_29)"/>
<path fill-rule="evenodd" clip-rule="evenodd" d="M150.25 11.044C150.25 9.63415 149.767 8.28114 148.906 7.28381C148.045 6.28831 146.876 5.72731 145.659 5.72731C139.595 5.72731 126.405 5.72731 120.341 5.72731C119.124 5.72731 117.955 6.28831 117.094 7.28381C116.232 8.28114 115.75 9.63415 115.75 11.044C115.75 16.6613 115.75 27.3386 115.75 32.956C115.75 34.3658 116.232 35.7188 117.094 36.7161C117.955 37.7116 119.124 38.2726 120.341 38.2726C126.405 38.2726 139.595 38.2726 145.659 38.2726C146.876 38.2726 148.045 37.7116 148.906 36.7161C149.767 35.7188 150.25 34.3658 150.25 32.956V11.044ZM147.4 11.044V32.956C147.4 33.4913 147.217 34.0046 146.891 34.3823C146.564 34.76 146.121 34.9726 145.659 34.9726C139.595 34.9726 126.405 34.9726 120.341 34.9726C119.879 34.9726 119.436 34.76 119.109 34.3823C118.783 34.0046 118.6 33.4913 118.6 32.956C118.6 27.3386 118.6 16.6613 118.6 11.044C118.6 10.5086 118.783 9.99531 119.109 9.61765C119.436 9.23998 119.879 9.02732 120.341 9.02732C126.405 9.02732 139.595 9.02732 145.659 9.02732C146.121 9.02732 146.564 9.23998 146.891 9.61765C147.217 9.99531 147.4 10.5086 147.4 11.044ZM123.342 15.3358V31.1666C123.342 32.0778 122.704 32.8166 121.917 32.8166C121.13 32.8166 120.492 32.0778 120.492 31.1666V12.8333C120.492 12.2778 120.732 11.7608 121.133 11.4565C121.532 11.1503 122.037 11.099 122.479 11.3171L133 16.5385L143.521 11.3171C143.963 11.099 144.468 11.1503 144.867 11.4565C145.268 11.7608 145.508 12.2778 145.508 12.8333V31.1666C145.508 32.0778 144.87 32.8166 144.083 32.8166C143.296 32.8166 142.658 32.0778 142.658 31.1666V15.3358L133.562 19.8495C133.203 20.0273 132.797 20.0273 132.438 19.8495L123.342 15.3358Z" fill="url(#paint2_linear_1_29)"/>
<path d="M206.19 0.000265675H173.81C173.446 -0.00475904 173.084 0.0615351 172.746 0.195362C172.408 0.329189 172.1 0.527927 171.839 0.780227C171.578 1.03253 171.369 1.33345 171.226 1.6658C171.082 1.99815 171.005 2.35543 171 2.71723V35.2828C171.005 35.6446 171.082 36.0018 171.226 36.3342C171.369 36.6665 171.578 36.9675 171.839 37.2198C172.1 37.4721 172.408 37.6708 172.746 37.8046C173.084 37.9385 173.446 38.0048 173.81 37.9997H206.19C206.554 38.0048 206.916 37.9385 207.254 37.8046C207.592 37.6708 207.9 37.4721 208.161 37.2198C208.422 36.9675 208.631 36.6665 208.774 36.3342C208.918 36.0018 208.995 35.6446 209 35.2828V2.71723C208.995 2.35543 208.918 1.99815 208.774 1.6658C208.631 1.33345 208.422 1.03253 208.161 0.780227C207.9 0.527927 207.592 0.329189 207.254 0.195362C206.916 0.0615351 206.554 -0.00475904 206.19 0.000265675ZM182.526 31.8058H176.792V14.7061H182.526V31.8058ZM179.659 12.3121C178.868 12.3121 178.11 11.9998 177.55 11.444C176.991 10.8881 176.677 10.1342 176.677 9.34813C176.677 8.56204 176.991 7.80815 177.55 7.2523C178.11 6.69645 178.868 6.38418 179.659 6.38418C180.079 6.33684 180.504 6.3782 180.907 6.50555C181.31 6.63291 181.681 6.84338 181.996 7.12319C182.311 7.40301 182.563 7.74585 182.736 8.12927C182.909 8.51269 182.998 8.92804 182.998 9.34813C182.998 9.76823 182.909 10.1836 182.736 10.567C182.563 10.9504 182.311 11.2933 181.996 11.5731C181.681 11.8529 181.31 12.0634 180.907 12.1907C180.504 12.3181 180.079 12.3594 179.659 12.3121ZM203.208 31.8058H197.474V22.629C197.474 20.33 196.652 18.829 194.568 18.829C193.924 18.8337 193.296 19.0347 192.769 19.405C192.243 19.7753 191.844 20.2971 191.625 20.9C191.475 21.3465 191.41 21.8168 191.434 22.287V31.7868H185.699C185.699 31.7868 185.699 16.245 185.699 14.6871H191.434V17.1C191.955 16.2015 192.712 15.4613 193.625 14.9591C194.538 14.4569 195.571 14.2118 196.614 14.2501C200.437 14.2501 203.208 16.701 203.208 21.964V31.8058Z" fill="url(#paint3_linear_1_29)"/>
<defs>
<linearGradient id="paint0_linear_1_29" x1="19" y1="0" x2="19" y2="38" gradientUnits="userSpaceOnUse">
<stop stop-color="#1472A7"/>
<stop offset="1" stop-color="#4314A7"/>
</linearGradient>
<linearGradient id="paint1_linear_1_29" x1="76" y1="0" x2="76" y2="38" gradientUnits="userSpaceOnUse">
<stop stop-color="#1472A7"/>
<stop offset="1" stop-color="#4314A7"/>
</linearGradient>
<linearGradient id="paint2_linear_1_29" x1="133" y1="5.72731" x2="133" y2="38.2726" gradientUnits="userSpaceOnUse">
<stop stop-color="#1472A7"/>
<stop offset="1" stop-color="#4314A7"/>
</linearGradient>
<linearGradient id="paint3_linear_1_29" x1="190" y1="0" x2="190" y2="38" gradientUnits="userSpaceOnUse">
<stop stop-color="#1472A7"/>
<stop offset="1" stop-color="#4314A7"/>
</linearGradient>
</defs>
</svg>
